<svg width="330" height="316" viewBox="0 0 330 316" fill="none" xmlns="http://www.w3.org/2000/svg">
<path opacity="0.03" d="M51.7383 316C17.2757 316 -7.73306 282.818 2.19566 249.817C7.81042 231.154 18.9652 212.944 40.1782 201.899C98.2282 171.675 93.1144 179.962 120.477 129.173C147.84 78.3842 222.001 66.3357 260.861 102.112C315.823 152.713 278.853 193.024 313.635 227.805C313.997 228.168 314.354 228.532 314.707 228.899C346.134 261.53 322.485 316 277.182 316H51.7383Z" fill="#292A2E"/>
<path d="M198.849 136.887V109.816H69.4749V136.887C69.4762 151.042 74.1193 164.807 82.6926 176.071C91.2658 187.335 103.296 195.478 116.94 199.25C118.942 199.812 120.706 201.014 121.963 202.672C123.219 204.329 123.899 206.352 123.899 208.432C123.899 210.513 123.219 212.536 121.963 214.193C120.706 215.851 118.942 217.053 116.94 217.615C103.296 221.387 91.265 229.53 82.6918 240.794C74.1185 252.059 69.4757 265.824 69.4749 279.98V307.052H198.849V279.98C198.848 265.825 194.204 252.06 185.631 240.796C177.058 229.532 165.028 221.389 151.384 217.617C149.381 217.055 147.617 215.853 146.36 214.196C145.104 212.538 144.423 210.515 144.423 208.434C144.423 206.354 145.104 204.331 146.36 202.673C147.617 201.016 149.381 199.814 151.384 199.252C165.028 195.48 177.058 187.338 185.631 176.073C194.205 164.809 198.848 151.044 198.849 136.889" fill="#B6EF11"/>
<path opacity="0.8" d="M198.849 136.887V109.816H69.4749V136.887C69.4762 151.042 74.1193 164.807 82.6926 176.071C91.2658 187.335 103.296 195.478 116.94 199.25C118.942 199.812 120.706 201.014 121.963 202.672C123.219 204.329 123.899 206.352 123.899 208.432C123.899 210.513 123.219 212.536 121.963 214.193C120.706 215.851 118.942 217.053 116.94 217.615C103.296 221.387 91.265 229.53 82.6918 240.794C74.1185 252.059 69.4757 265.824 69.4749 279.98V307.052H198.849V279.98C198.848 265.825 194.204 252.06 185.631 240.796C177.058 229.532 165.028 221.389 151.384 217.617C149.381 217.055 147.617 215.853 146.36 214.196C145.104 212.538 144.423 210.515 144.423 208.434C144.423 206.354 145.104 204.331 146.36 202.673C147.617 201.016 149.381 199.814 151.384 199.252C165.028 195.48 177.058 187.338 185.631 176.073C194.205 164.809 198.848 151.044 198.849 136.889" fill="white"/>
<path d="M199.258 307.461H69.0662V279.981C69.0885 265.74 73.769 251.899 82.3935 240.567C91.0181 229.236 103.113 221.037 116.833 217.222C118.749 216.684 120.438 215.534 121.64 213.947C122.843 212.361 123.493 210.424 123.493 208.434C123.493 206.443 122.843 204.507 121.64 202.92C120.438 201.333 118.749 200.183 116.833 199.645C103.113 195.83 91.0184 187.631 82.3939 176.3C73.7694 164.969 69.0888 151.127 69.0662 136.887V109.407H199.258V136.887C199.235 151.127 194.555 164.969 185.931 176.3C177.307 187.631 165.212 195.83 151.493 199.645C149.576 200.183 147.888 201.333 146.685 202.92C145.483 204.507 144.832 206.443 144.832 208.434C144.832 210.424 145.483 212.361 146.685 213.947C147.888 215.534 149.576 216.684 151.493 217.222C165.212 221.037 177.306 229.236 185.931 240.568C194.555 251.899 199.235 265.741 199.258 279.981V307.461ZM69.8851 306.643H198.44V279.981C198.418 265.92 193.797 252.252 185.281 241.063C176.765 229.874 164.823 221.778 151.276 218.01C149.186 217.424 147.346 216.172 146.035 214.443C144.724 212.714 144.014 210.604 144.014 208.434C144.014 206.264 144.724 204.154 146.035 202.425C147.346 200.696 149.186 199.443 151.276 198.857C164.823 195.09 176.765 186.994 185.281 175.805C193.797 164.616 198.418 150.948 198.44 136.887V110.224H69.8835V136.887C69.9058 150.948 74.5276 164.616 83.0437 175.805C91.5598 186.994 103.503 195.09 117.05 198.857C119.139 199.443 120.979 200.696 122.29 202.425C123.601 204.154 124.31 206.264 124.31 208.434C124.31 210.603 123.601 212.714 122.29 214.442C120.979 216.171 119.139 217.424 117.05 218.01C103.502 221.777 91.5596 229.873 83.0434 241.062C74.5273 252.251 69.9056 265.919 69.8835 279.981L69.8851 306.643Z" fill="#292A2E"/>
<path d="M206.365 104.888C206.365 106.176 205.861 107.412 204.961 108.333C204.06 109.254 202.835 109.785 201.548 109.813C201.51 109.816 201.475 109.816 201.437 109.816H67.106C67.068 109.816 67.0329 109.816 66.9953 109.813C65.6983 109.784 64.4651 109.245 63.5634 108.312C62.6616 107.38 62.164 106.129 62.1785 104.832C62.1931 103.535 62.7187 102.296 63.6412 101.384C64.5638 100.472 65.8088 99.9603 67.106 99.9605H201.435C202.083 99.9603 202.723 100.088 203.322 100.335C203.92 100.583 204.463 100.946 204.921 101.403C205.378 101.861 205.742 102.404 205.989 103.002C206.237 103.6 206.365 104.241 206.365 104.888Z" fill="#292A2E"/>
<path d="M136.448 261.64V203.13C136.398 200.907 137.079 198.73 138.387 196.932C139.694 195.134 141.556 193.814 143.686 193.177C166.578 186.878 187.874 166.343 188.921 142.756C188.976 141.491 187.865 140.657 186.599 140.657H81.7236C80.4567 140.657 79.3463 141.491 79.4019 142.756C80.4485 166.343 101.745 186.878 124.636 193.177C127.876 194.073 131.876 198.043 131.876 203.277V261.644C131.876 265.854 130.291 269.428 127.315 272.404C124.858 274.862 87.8533 307.051 87.8533 307.051H180.471C180.471 307.051 143.124 274.494 141.067 272.437C138.091 269.462 136.448 265.849 136.448 261.64Z" fill="#FAFAFA"/>
<path d="M206.4 310.691C206.4 311.979 205.896 313.216 204.996 314.137C204.095 315.057 202.87 315.588 201.583 315.616C201.545 315.619 201.51 315.619 201.472 315.619H67.1413C67.1037 315.619 67.0685 315.619 67.0309 315.616C65.734 315.587 64.5009 315.048 63.5991 314.116C62.6973 313.183 62.1996 311.933 62.2142 310.635C62.2287 309.338 62.7542 308.099 63.6767 307.187C64.5991 306.275 65.844 305.763 67.1413 305.764H201.472C202.779 305.764 204.032 306.283 204.956 307.207C205.88 308.131 206.4 309.384 206.4 310.691Z" fill="#292A2E"/>
<path d="M239.745 315.321C271.462 315.321 297.174 289.609 297.174 257.891C297.174 226.174 271.462 200.461 239.745 200.461C208.027 200.461 182.315 226.174 182.315 257.891C182.315 289.609 208.027 315.321 239.745 315.321Z" fill="white"/>
<path d="M256.498 313.127C226.04 322.363 193.746 305.102 184.508 274.644C175.27 244.186 192.534 211.892 222.992 202.656C253.449 193.42 285.745 210.68 294.981 241.138C304.217 271.596 286.955 303.89 256.498 313.127ZM223.161 203.212C193.011 212.356 175.921 244.325 185.066 274.475C194.21 304.625 226.178 321.714 256.329 312.57C286.479 303.425 303.568 271.457 294.424 241.307C285.28 211.157 253.311 194.068 223.161 203.212Z" fill="#292A2E"/>
<path opacity="0.45" d="M239.745 308.453C267.669 308.453 290.307 285.816 290.307 257.891C290.307 229.967 267.669 207.329 239.745 207.329C211.82 207.329 189.183 229.967 189.183 257.891C189.183 285.816 211.82 308.453 239.745 308.453Z" fill="#B6EF11"/>
<path d="M239.745 260.931C241.424 260.931 242.785 259.57 242.785 257.891C242.785 256.212 241.424 254.851 239.745 254.851C238.066 254.851 236.705 256.212 236.705 257.891C236.705 259.57 238.066 260.931 239.745 260.931Z" fill="#292A2E"/>
<path d="M277.223 278.164C277.187 278.175 277.148 278.179 277.11 278.175C277.072 278.171 277.035 278.16 277.001 278.142L239.608 258.148C239.561 258.123 239.522 258.086 239.495 258.041C239.468 257.996 239.454 257.944 239.454 257.891L239.441 228.412C239.441 228.335 239.472 228.261 239.526 228.206C239.581 228.151 239.655 228.121 239.732 228.121C239.81 228.121 239.884 228.151 239.938 228.206C239.993 228.261 240.024 228.335 240.024 228.412L240.036 257.717L277.276 277.628C277.327 277.656 277.368 277.697 277.396 277.748C277.423 277.799 277.434 277.857 277.429 277.914C277.423 277.971 277.4 278.026 277.364 278.07C277.327 278.115 277.278 278.147 277.223 278.164Z" fill="#292A2E"/>
<path d="M87.4809 175.454C87.4809 175.454 86.2875 181.64 80.495 181.985C74.7025 182.33 75.9587 186.945 75.9587 186.945H98.0949V175.885L87.4809 175.454Z" fill="#B6EF11"/>
<path d="M100.111 156.844C100.111 156.844 101.771 162.922 96.7253 165.788C91.6798 168.654 94.8454 172.241 94.8454 172.241L114.707 162.47L109.825 152.546L100.111 156.844Z" fill="#B6EF11"/>
<path d="M98.0091 160.863L83.0427 104.392C81.9066 98.1534 83.6149 95.4492 86.25 92.8222C90.877 88.2071 110.049 78.3842 110.049 78.3842L133.05 78.3217C139.149 78.3217 145.147 84.3357 145.147 90.4343C145.147 96.533 138.947 101.705 132.846 101.705L104.522 104.534L112.2 156.24L98.0091 160.863Z" fill="#262626"/>
<path d="M112.2 156.238L109.177 135.882L93.8643 145.223L98.0094 160.863L112.2 156.238Z" fill="#0C0C0C"/>
<path d="M115.671 89.812C115.671 89.812 106.002 91.9669 96.4256 101.543C90.6195 107.349 91.0956 117.856 91.9665 138.064L101.478 124.015L111.909 105.201L115.671 89.812Z" fill="#0C0C0C"/>
<path d="M149.149 78.3148L133.529 78.2412L133.523 78.4455H128.793C128.793 78.4455 116.945 89.3481 107.406 96.2183C100.467 101.215 96.2348 105.979 95.8687 111.171C94.9757 123.828 84.906 177.81 84.906 177.81L100.061 180.104L113.359 115.593C113.359 115.593 134.156 106.006 138.966 102.67C143.495 99.5282 146.695 98.3136 148.193 94.8852C150.782 88.9652 149.149 78.3148 149.149 78.3148Z" fill="#262626"/>
<path d="M131.625 82.2499L106.284 82.5854L120.499 91.0756L132.329 84.9675C132.614 84.8145 132.84 84.5702 132.969 84.2736C133.099 83.977 133.126 83.6454 133.044 83.332C132.963 83.0186 132.779 82.7416 132.522 82.5453C132.264 82.3491 131.948 82.245 131.625 82.2499Z" fill="#292A2E"/>
<path opacity="0.2" d="M131.625 82.2499L106.284 82.5854L120.499 91.0756L132.329 84.9675C132.614 84.8145 132.84 84.5702 132.969 84.2736C133.099 83.977 133.126 83.6454 133.044 83.332C132.963 83.0186 132.779 82.7416 132.522 82.5453C132.264 82.3491 131.948 82.245 131.625 82.2499Z" fill="white"/>
<path d="M106.429 36.7886L99.262 60.0127L84.9058 78.8093L93.2921 88.436L110.372 69.373C111.159 68.7509 111.774 67.9385 112.16 67.0125L112.427 66.3688L122.291 42.4998L106.429 36.7886Z" fill="#B6EF11"/>
<path d="M117.471 12.1358C117.471 12.1358 114.582 9.95594 113.867 4.93824C113.313 1.05299 116.896 3.57001 116.896 3.57001C116.896 3.57001 116.525 0.768958 118.565 1.04686C120.605 1.32475 121.749 4.26761 121.749 4.26761" fill="#0C0C0C"/>
<path d="M129.115 1.37463C129.115 1.37463 139.242 2.46048 135.581 16.1829L134.685 16.243L132.866 16.3656" fill="#0C0C0C"/>
<path d="M119.167 30.5143C119.211 30.5086 119.705 38.707 129.229 37.993C135.823 37.4989 138.173 30.5037 138.325 30.5037C137.614 30.3525 136.735 30.1232 136.386 30.0443C135.625 29.8678 134.936 29.4637 134.41 28.8859C133.885 28.308 133.547 27.5839 133.444 26.8097C133.251 25.6478 133.578 19.7029 133.477 18.5271L123.356 20.7858C123.498 23.2689 124.487 29.0255 121.018 30.0443C120.441 30.2123 119.82 30.3672 119.167 30.5143Z" fill="#E98862"/>
<path opacity="0.52" d="M123.215 27.6912C123.374 27.1802 123.476 26.6534 123.52 26.1202C123.631 24.9036 123.609 23.6785 123.454 22.4667C125.511 22.1886 127.449 21.3391 129.047 20.0146C129.235 20.7094 130.269 23.7413 129.983 24.4009C129.441 25.6494 126.899 27.6912 123.215 27.6912Z" fill="#0C0C0C"/>
<path d="M125.303 26.0684C129.296 25.7104 134.075 23.1877 134.144 17.7678L134.206 12.8772C134.275 7.45741 131.484 3.0282 126.381 2.96241C121.278 2.89661 117.407 7.24285 117.339 12.6639L117.311 14.8299C117.315 15.5735 117.37 16.316 117.475 17.0522C117.736 18.9996 118.142 21.9612 119.464 23.9641C120.711 25.8534 122.752 26.2972 125.303 26.0684Z" fill="#E98862"/>
<path opacity="0.52" d="M123.451 21.1145C122.627 21.1518 121.806 20.9949 121.053 20.6563C121.023 20.6421 121 20.6167 120.988 20.5857C120.977 20.5546 120.977 20.5201 120.99 20.4896C121.003 20.459 121.028 20.4346 121.058 20.4216C121.089 20.4086 121.123 20.4079 121.154 20.4197C122.775 21.1108 124.247 21.0094 125.41 20.1271C125.433 20.1085 125.458 20.0912 125.483 20.0752C125.513 20.0582 125.548 20.0537 125.581 20.0626C125.614 20.0715 125.642 20.0932 125.659 20.1228C125.676 20.1525 125.681 20.1877 125.672 20.2207C125.663 20.2536 125.641 20.2817 125.611 20.2988C125.602 20.3045 125.587 20.3163 125.566 20.3323C124.954 20.7978 124.218 21.0701 123.451 21.1145Z" fill="#0C0C0C"/>
<path opacity="0.52" d="M123.489 22.3354C123.34 22.3445 123.191 22.3409 123.043 22.3248C123.009 22.3212 122.978 22.3043 122.956 22.2778C122.935 22.2512 122.925 22.2172 122.928 22.1832C122.932 22.1492 122.949 22.1181 122.975 22.0966C123.002 22.0751 123.036 22.065 123.07 22.0686C123.303 22.1115 123.543 22.1042 123.773 22.047C124.004 21.9899 124.219 21.8842 124.405 21.7371C124.429 21.713 124.462 21.6994 124.496 21.6993C124.53 21.6993 124.563 21.7128 124.587 21.7369C124.612 21.7611 124.625 21.7938 124.625 21.8279C124.625 21.8621 124.612 21.8948 124.588 21.919C124.281 22.1806 123.892 22.3278 123.489 22.3354Z" fill="#0C0C0C"/>
<path d="M119.024 15.8699C119.371 15.8699 119.652 15.5885 119.652 15.2413C119.652 14.8942 119.371 14.6128 119.024 14.6128C118.677 14.6128 118.395 14.8942 118.395 15.2413C118.395 15.5885 118.677 15.8699 119.024 15.8699Z" fill="#0C0C0C"/>
<path d="M125.165 15.4845C125.513 15.4845 125.794 15.2031 125.794 14.856C125.794 14.5088 125.513 14.2274 125.165 14.2274C124.818 14.2274 124.537 14.5088 124.537 14.856C124.537 15.2031 124.818 15.4845 125.165 15.4845Z" fill="#0C0C0C"/>
<path d="M133.806 19.4147C135.357 19.4347 136.635 17.7914 136.655 16.2405C136.674 14.6896 135.429 13.8187 133.876 13.7987L133.064 14.8298L132.472 19.4L133.806 19.4147Z" fill="#E98862"/>
<path d="M132.263 16.923C132.263 16.923 131.739 9.25382 129.414 8.78016C127.865 8.46467 124.109 10.6601 120.63 9.99801C119.108 9.70785 117.663 10.0847 117.517 10.8035C117.458 11.0896 116.51 6.99753 118.894 3.89284C120.791 1.42118 127.001 0.72317 129.826 1.53398C137.649 3.778 134.197 14.135 134.197 14.135L133.849 16.7791L132.263 16.923Z" fill="#0C0C0C"/>
<g opacity="0.52">
<path d="M122.513 19.3043H122.503C122.004 19.2994 121.166 19.2353 121.169 18.8613C121.173 18.5515 122.054 15.216 122.155 14.8367C122.166 14.8071 122.188 14.7827 122.216 14.7682C122.244 14.7537 122.276 14.7502 122.307 14.7583C122.338 14.7665 122.364 14.7857 122.381 14.8123C122.398 14.8389 122.405 14.8709 122.4 14.9021C122.008 16.3795 121.425 18.6533 121.422 18.8638C121.763 19.0125 122.134 19.0764 122.505 19.0497C122.538 19.0487 122.571 19.0612 122.596 19.0843C122.62 19.1075 122.634 19.1394 122.635 19.1731C122.636 19.2069 122.624 19.2396 122.601 19.2641C122.578 19.2886 122.546 19.3029 122.512 19.3039L122.513 19.3043Z" fill="#0C0C0C"/>
</g>
<path d="M120.808 11.8329C120.283 11.6885 119.728 11.6885 119.203 11.8329C118.945 11.9024 118.699 12.0101 118.473 12.1525C118.25 12.2923 118.045 12.4595 117.863 12.6503C117.83 12.6843 117.81 12.73 117.81 12.7778C117.809 12.8256 117.827 12.8718 117.859 12.9069C117.892 12.9419 117.936 12.9631 117.984 12.9659C118.032 12.9687 118.079 12.953 118.115 12.922L118.126 12.9122C118.294 12.7566 118.481 12.6227 118.682 12.5138C118.88 12.4057 119.093 12.328 119.314 12.2833C119.748 12.1924 120.199 12.2176 120.621 12.3564L120.639 12.3626C120.709 12.3872 120.785 12.3831 120.852 12.3513C120.919 12.3194 120.97 12.2624 120.995 12.1928C121.019 12.1231 121.015 12.0466 120.983 11.9799C120.951 11.9133 120.894 11.862 120.825 11.8374L120.808 11.8329Z" fill="#0C0C0C"/>
<path d="M124.527 12.1485C124.927 11.9545 125.371 11.8699 125.814 11.9033C126.039 11.9178 126.26 11.9665 126.47 12.0476C126.684 12.1287 126.887 12.2363 127.074 12.368L127.086 12.3757C127.126 12.4019 127.175 12.4115 127.222 12.4025C127.269 12.3935 127.311 12.3667 127.339 12.3276C127.366 12.2885 127.378 12.2402 127.371 12.1929C127.363 12.1456 127.338 12.1028 127.3 12.0737C127.095 11.9085 126.869 11.77 126.629 11.6614C126.386 11.5503 126.128 11.4763 125.863 11.4419C125.323 11.3685 124.774 11.4422 124.273 11.6552C124.205 11.6846 124.152 11.7397 124.124 11.8084C124.097 11.877 124.099 11.9537 124.128 12.0214C124.157 12.0892 124.212 12.1425 124.281 12.1696C124.35 12.1967 124.426 12.1955 124.494 12.1661L124.51 12.1587L124.527 12.1485Z" fill="#0C0C0C"/>
<path d="M124.273 3.92799C124.626 2.23829 123.982 0.674077 122.834 0.434233C121.686 0.194389 120.469 1.36973 120.116 3.05943C119.763 4.74913 120.407 6.31333 121.555 6.55317C122.703 6.79302 123.92 5.61769 124.273 3.92799Z" fill="#0C0C0C"/>
<path d="M107.334 48.5315C107.634 52.0555 109.761 74.0433 110.049 78.3842H149.132C149.356 74.4691 150.365 57.349 151.216 49.6925C152.029 42.3867 153.169 39.0617 152.232 36.7915C150.581 32.7865 145.326 30.999 141.766 30.5171C139.592 30.2229 136.323 30.012 136.323 30.012C136.323 30.012 136.047 35.6109 129.447 35.9223C120.463 36.3465 121.063 30.012 121.019 30.012C119.563 30.012 111.641 31.0701 109.66 32.3615C108.531 33.0483 107.599 34.0172 106.958 35.173C106.317 36.3288 105.988 37.6317 106.003 38.9534C105.965 41.5824 106.993 44.5342 107.334 48.5315Z" fill="#B6EF11"/>
<path d="M109.315 69.72C109.288 69.7199 109.261 69.7094 109.24 69.6906C109.22 69.6718 109.207 69.646 109.205 69.6182L107.724 52.6832C107.722 52.6685 107.724 52.6537 107.728 52.6395C107.732 52.6253 107.739 52.6121 107.749 52.6007C107.758 52.5893 107.77 52.5799 107.783 52.573C107.796 52.5661 107.81 52.5619 107.825 52.5606C107.84 52.5588 107.855 52.56 107.869 52.5642C107.883 52.5684 107.897 52.5754 107.908 52.5849C107.92 52.5944 107.929 52.6061 107.936 52.6194C107.943 52.6326 107.947 52.6471 107.948 52.662L109.429 69.597C109.43 69.6116 109.428 69.6263 109.424 69.6402C109.419 69.6542 109.412 69.6671 109.403 69.6783C109.394 69.6895 109.382 69.6988 109.369 69.7055C109.356 69.7122 109.342 69.7163 109.327 69.7176L109.315 69.72Z" fill="#0C0C0C"/>
<path d="M112.149 79.5572L117.516 75.2032L116.613 75.4586C116.32 75.5351 116.008 75.4976 115.742 75.3534C115.475 75.2093 115.273 74.9694 115.177 74.6821C115.132 74.5321 115.119 74.3746 115.137 74.2192C115.155 74.0638 115.205 73.9138 115.283 73.7783C115.361 73.6428 115.466 73.5246 115.592 73.431C115.717 73.3374 115.86 73.2703 116.012 73.2338L127.286 70.4916L128.256 74.083C128.557 75.1982 128.518 76.3779 128.144 77.4708C127.77 78.5638 127.079 79.5202 126.158 80.2176L121.98 83.3697C121.766 83.5377 121.501 83.6267 121.229 83.6216C120.957 83.6164 120.696 83.5175 120.488 83.3415C120.304 83.1786 120.178 82.9612 120.126 82.7211C120.075 82.481 120.101 82.2307 120.202 82.0068C120.189 82.0031 120.177 81.9968 120.166 81.9883C120.156 81.9797 120.147 81.9691 120.141 81.9571C120.134 81.9451 120.131 81.9319 120.13 81.9184C120.129 81.9049 120.13 81.8913 120.135 81.8784L119.365 82.4616C119.127 82.6494 118.827 82.7399 118.525 82.7148C118.223 82.6897 117.942 82.5508 117.739 82.3264C117.564 82.1195 117.467 81.8576 117.467 81.5867C117.466 81.3157 117.561 81.0532 117.734 80.8453C117.722 80.8433 117.711 80.8393 117.7 80.8335L117.384 81.0729C117.17 81.2409 116.904 81.3297 116.632 81.3245C116.361 81.3193 116.099 81.2203 115.891 81.0443C115.668 80.8468 115.53 80.5704 115.506 80.2732C115.482 79.976 115.575 79.6812 115.764 79.4505C115.759 79.4439 115.756 79.4369 115.753 79.4297L113.518 81.2425C113.407 81.3324 113.28 81.3996 113.143 81.4403C113.006 81.481 112.863 81.4943 112.721 81.4795C112.579 81.4648 112.441 81.4222 112.316 81.3543C112.191 81.2863 112.08 81.1943 111.99 81.0836C111.9 80.9728 111.833 80.8454 111.792 80.7087C111.751 80.5719 111.738 80.4285 111.753 80.2866C111.768 80.1447 111.81 80.0071 111.878 79.8817C111.946 79.7563 112.038 79.6454 112.149 79.5555L112.149 79.5572Z" fill="#E98862"/>
<path opacity="0.2" d="M115.889 79.4951C115.901 79.4908 115.912 79.4844 115.922 79.4763L118.072 77.6903C118.093 77.6718 118.107 77.6456 118.109 77.6175C118.111 77.5894 118.102 77.5614 118.084 77.5397C118.066 77.518 118.04 77.5041 118.012 77.5011C117.984 77.4981 117.956 77.5062 117.934 77.5236L115.784 79.3099C115.764 79.3262 115.751 79.3489 115.746 79.3739C115.742 79.3989 115.746 79.4247 115.759 79.4468C115.772 79.4689 115.792 79.4858 115.815 79.4947C115.839 79.5035 115.865 79.5036 115.889 79.4951Z" fill="#0A0A0A"/>
<path opacity="0.2" d="M117.784 80.8444C117.796 80.8401 117.807 80.8341 117.816 80.8265L119.517 79.437C119.538 79.4184 119.551 79.3925 119.553 79.3647C119.555 79.3369 119.546 79.3094 119.529 79.2878C119.511 79.2662 119.486 79.2522 119.458 79.2488C119.43 79.2454 119.403 79.2528 119.38 79.2694L117.679 80.6589C117.66 80.6751 117.647 80.6977 117.642 80.7227C117.637 80.7477 117.642 80.7735 117.654 80.7956C117.667 80.8177 117.687 80.8347 117.71 80.8437C117.734 80.8526 117.76 80.8529 117.784 80.8444Z" fill="#0A0A0A"/>
<path opacity="0.2" d="M120.273 82.01C120.285 82.0055 120.297 81.9989 120.307 81.9904L121.095 81.3144C121.105 81.3052 121.114 81.2939 121.121 81.2812C121.127 81.2686 121.131 81.2548 121.132 81.2406C121.133 81.2265 121.131 81.2123 121.127 81.1988C121.122 81.1854 121.115 81.1729 121.106 81.1622C121.097 81.1515 121.085 81.1427 121.073 81.1363C121.06 81.1299 121.046 81.1261 121.032 81.125C121.018 81.124 121.004 81.1258 120.99 81.1302C120.977 81.1347 120.964 81.1417 120.954 81.151L120.166 81.8265C120.147 81.843 120.134 81.8657 120.13 81.8906C120.126 81.9154 120.13 81.941 120.143 81.9628C120.156 81.9846 120.176 82.0013 120.199 82.01C120.223 82.0186 120.249 82.0184 120.273 82.01Z" fill="#0A0A0A"/>
<path d="M159.579 68.8932L159.538 68.7101L152.405 37.1605L138.292 40.3506L143.86 64.9789L121.555 70.4584L124.3 83.0456L154.023 77.3756C154.09 77.3621 154.186 77.3421 154.256 77.327C155.159 77.1229 156.014 76.7428 156.77 76.2084C157.526 75.6741 158.17 74.9959 158.664 74.2128C159.159 73.4296 159.494 72.5567 159.651 71.6439C159.808 70.7312 159.783 69.7965 159.579 68.8932Z" fill="#B6EF11"/>
<path d="M121.446 70.4813C121.44 70.4532 121.446 70.4238 121.461 70.3995C121.476 70.3751 121.5 70.3575 121.528 70.3506L143.732 64.8976L140.122 48.9512C140.115 48.9224 140.12 48.8922 140.136 48.8673C140.152 48.8423 140.177 48.8247 140.206 48.8182C140.235 48.8117 140.265 48.8169 140.29 48.8326C140.315 48.8484 140.332 48.8734 140.339 48.9021L143.974 64.9548C143.98 64.9833 143.975 65.0131 143.96 65.038C143.945 65.0628 143.92 65.0807 143.892 65.0877L121.686 70.541C121.686 70.541 121.834 71.19 121.877 71.4078C121.879 71.4357 121.87 71.4635 121.852 71.4851C121.835 71.5068 121.809 71.5208 121.781 71.5241C121.753 71.5273 121.725 71.5197 121.703 71.5027C121.681 71.4858 121.666 71.4608 121.662 71.4331C121.611 71.1945 121.446 70.4813 121.446 70.4813Z" fill="#0C0C0C"/>
<path d="M122.316 88.0555L113.741 61.6961C113.59 61.2328 113.296 60.8291 112.902 60.5428C112.508 60.2566 112.033 60.1023 111.546 60.1022H76.6097C76.2455 60.1022 75.8864 60.1883 75.5619 60.3537C75.2374 60.519 74.9567 60.7588 74.7426 61.0535C74.5286 61.3481 74.3874 61.6893 74.3305 62.049C74.2737 62.4087 74.3028 62.7768 74.4155 63.1231L82.9911 89.4826C83.1416 89.9459 83.435 90.3497 83.8292 90.636C84.2234 90.9223 84.6981 91.0765 85.1853 91.0764H120.122C120.486 91.0763 120.845 90.9901 121.17 90.8247C121.494 90.6593 121.775 90.4195 121.989 90.1248C122.203 89.8302 122.344 89.4891 122.401 89.1295C122.458 88.7698 122.429 88.4018 122.316 88.0555Z" fill="#292A2E"/>
<path opacity="0.2" d="M122.316 88.0555L113.741 61.6961C113.59 61.2328 113.296 60.8291 112.902 60.5428C112.508 60.2566 112.033 60.1023 111.546 60.1022H76.6097C76.2455 60.1022 75.8864 60.1883 75.5619 60.3537C75.2374 60.519 74.9567 60.7588 74.7426 61.0535C74.5286 61.3481 74.3874 61.6893 74.3305 62.049C74.2737 62.4087 74.3028 62.7768 74.4155 63.1231L82.9911 89.4826C83.1416 89.9459 83.435 90.3497 83.8292 90.636C84.2234 90.9223 84.6981 91.0765 85.1853 91.0764H120.122C120.486 91.0763 120.845 90.9901 121.17 90.8247C121.494 90.6593 121.775 90.4195 121.989 90.1248C122.203 89.8302 122.344 89.4891 122.401 89.1295C122.458 88.7698 122.429 88.4018 122.316 88.0555Z" fill="white"/>
<path d="M97.3597 79.2531C99.3834 79.2531 101.024 77.6126 101.024 75.5889C101.024 73.5652 99.3834 71.9247 97.3597 71.9247C95.3361 71.9247 93.6956 73.5652 93.6956 75.5889C93.6956 77.6126 95.3361 79.2531 97.3597 79.2531Z" fill="white"/>
</svg>
